<svg width="117" height="116" viewBox="0 0 117 116" fill="none" xmlns="http://www.w3.org/2000/svg">
<rect x="0.5" width="116" height="116" rx="58" fill="#008060" fill-opacity="0.05"/>
<rect x="24.5" y="24" width="68" height="68" rx="34" fill="#008060" fill-opacity="0.2"/>
<rect x="48.5" y="48" width="20" height="20" rx="10" fill="white"/>
<path fill-rule="evenodd" clip-rule="evenodd" d="M48.5 58C48.5 63.514 52.986 68 58.5 68C64.014 68 68.5 63.514 68.5 58C68.5 52.486 64.014 48 58.5 48C52.986 48 48.5 52.486 48.5 58ZM63.7071 56.2071C64.0976 55.8166 64.0976 55.1834 63.7071 54.7929C63.3166 54.4024 62.6834 54.4024 62.2929 54.7929L57.5 59.5858L55.2071 57.2929C54.8166 56.9024 54.1834 56.9024 53.7929 57.2929C53.4024 57.6834 53.4024 58.3166 53.7929 58.7071L56.7929 61.7071C57.1834 62.0976 57.8166 62.0976 58.2071 61.7071L63.7071 56.2071Z" fill="#008060"/>
</svg>
