<svg width="247" height="330" viewBox="0 0 247 330" fill="none" xmlns="http://www.w3.org/2000/svg">
<g filter="url(#filter0_d_1_1448)">
<rect x="0.5" width="246" height="246.406" rx="6" fill="white" shape-rendering="crispEdges"/>
<circle cx="42.3218" cy="41.8218" r="17.8218" fill="#D9ECE7"/>
<rect x="69.1436" y="37.2013" width="97.6898" height="9.24092" rx="2" fill="#008060"/>
<g clip-path="url(#clip0_1_1448)">
<path d="M80.3202 110.644L229.27 242.992H-68.6293L80.3202 110.644Z" fill="#008060"/>
<path d="M168.769 128.465L317.719 260.814H19.8199L168.769 128.465Z" fill="#008060"/>
<circle cx="191.061" cy="100.205" r="10.5611" fill="#D9ECE7"/>
</g>
<rect x="24.83" y="72.9736" width="199.34" height="112.34" stroke="#DDDDDD" stroke-width="0.660066"/>
<path d="M31.6289 201.97C28.2223 201.97 25.4507 204.742 25.4507 208.148C25.4507 215.164 33.3851 218.626 36.0843 220.876L36.3814 221.129L36.6784 220.876C39.3777 218.626 47.3121 215.164 47.3121 208.148C47.3121 204.742 44.5404 201.97 41.1339 201.97C39.2069 201.97 37.5138 202.885 36.3814 204.272C35.249 202.885 33.5559 201.97 31.6289 201.97ZM31.6289 202.921C33.4519 202.921 35.0447 203.856 35.9804 205.267L36.3814 205.861L36.7824 205.267C37.718 203.856 39.3108 202.921 41.1339 202.921C44.0262 202.921 46.3616 205.256 46.3616 208.148C46.3616 214.278 39.515 217.451 36.3814 219.926C33.2477 217.451 26.4012 214.278 26.4012 208.148C26.4012 205.256 28.7366 202.921 31.6289 202.921Z" fill="#444444"/>
<path d="M68.0641 200.574C62.0826 200.574 57.1631 204.787 57.1631 210.05C57.1631 213.103 58.8562 215.797 61.4106 217.52C61.4069 217.622 61.4106 217.78 61.2769 218.277C61.1117 218.892 60.785 219.762 60.1037 220.728L59.6136 221.411L60.4601 221.426C63.3951 221.439 65.0956 219.51 65.3611 219.198C66.2281 219.391 67.1303 219.525 68.0641 219.525C74.0437 219.525 78.9651 215.313 78.9651 210.05C78.9651 204.787 74.0437 200.574 68.0641 200.574ZM68.0641 201.465C73.6315 201.465 78.074 205.34 78.074 210.05C78.074 214.759 73.6315 218.634 68.0641 218.634C67.1117 218.634 66.1872 218.519 65.3166 218.307L65.0492 218.248L64.871 218.47C64.871 218.47 63.4972 220.019 61.3067 220.386C61.7021 219.677 62.0028 219.018 62.1383 218.515C62.3277 217.811 62.3314 217.327 62.3314 217.327V217.089L62.1235 216.955C59.6396 215.381 58.0542 212.873 58.0542 210.05C58.0542 205.34 62.4948 201.465 68.0641 201.465Z" fill="#444444"/>
<path d="M109.193 200.545C109.147 200.552 109.102 200.567 109.059 200.589L90.0494 208.757C89.8804 208.832 89.7709 208.999 89.7672 209.183C89.7635 209.368 89.8693 209.537 90.0345 209.619L97.1187 213.153L100.653 220.238C100.735 220.403 100.904 220.509 101.09 220.505C101.273 220.501 101.44 220.392 101.515 220.223L109.683 201.213C109.754 201.057 109.735 200.873 109.633 200.736C109.533 200.597 109.364 200.524 109.193 200.545ZM107.173 202.431L97.3711 212.233L91.3711 209.233L107.173 202.431ZM107.841 203.099L101.039 218.901L98.0395 212.901L107.841 203.099Z" fill="#444444"/>
<rect x="1" y="0.5" width="245" height="245.406" rx="5.5" stroke="#DDDDDD" shape-rendering="crispEdges"/>
</g>
<g filter="url(#filter1_d_1_1448)">
<rect x="33.5" y="256.406" width="180" height="29" rx="6" fill="white" shape-rendering="crispEdges"/>
<rect x="57.5" y="268.406" width="132" height="5" rx="2" fill="#DDDDDD"/>
<rect x="34" y="256.906" width="179" height="28" rx="5.5" stroke="#DDDDDD" shape-rendering="crispEdges"/>
</g>
<g filter="url(#filter2_d_1_1448)">
<rect x="68.5" y="295.406" width="110" height="19" rx="6" fill="white" shape-rendering="crispEdges"/>
<rect x="92.5" y="303.406" width="62" height="3" rx="1.5" fill="#E5E5E5"/>
<rect x="69" y="295.906" width="109" height="18" rx="5.5" stroke="#E5E5E5" shape-rendering="crispEdges"/>
</g>
<rect x="112" y="324.406" width="5" height="5" rx="2.5" fill="#DDDDDD"/>
<rect x="121" y="324.406" width="5" height="5" rx="2.5" fill="#DDDDDD"/>
<rect x="130" y="324.406" width="5" height="5" rx="2.5" fill="#DDDDDD"/>
<defs>
<filter id="filter0_d_1_1448" x="0.5" y="0" width="246" height="248.406" filterUnits="userSpaceOnUse" color-interpolation-filters="sRGB">
<feFlood flood-opacity="0" result="BackgroundImageFix"/>
<feColorMatrix in="SourceAlpha" type="matrix" values="0 0 0 0 0 0 0 0 0 0 0 0 0 0 0 0 0 0 127 0" result="hardAlpha"/>
<feOffset dy="2"/>
<feComposite in2="hardAlpha" operator="out"/>
<feColorMatrix type="matrix" values="0 0 0 0 0 0 0 0 0 0 0 0 0 0 0 0 0 0 0.06 0"/>
<feBlend mode="normal" in2="BackgroundImageFix" result="effect1_dropShadow_1_1448"/>
<feBlend mode="normal" in="SourceGraphic" in2="effect1_dropShadow_1_1448" result="shape"/>
</filter>
<filter id="filter1_d_1_1448" x="33.5" y="256.406" width="180" height="31" filterUnits="userSpaceOnUse" color-interpolation-filters="sRGB">
<feFlood flood-opacity="0" result="BackgroundImageFix"/>
<feColorMatrix in="SourceAlpha" type="matrix" values="0 0 0 0 0 0 0 0 0 0 0 0 0 0 0 0 0 0 127 0" result="hardAlpha"/>
<feOffset dy="2"/>
<feComposite in2="hardAlpha" operator="out"/>
<feColorMatrix type="matrix" values="0 0 0 0 0 0 0 0 0 0 0 0 0 0 0 0 0 0 0.06 0"/>
<feBlend mode="normal" in2="BackgroundImageFix" result="effect1_dropShadow_1_1448"/>
<feBlend mode="normal" in="SourceGraphic" in2="effect1_dropShadow_1_1448" result="shape"/>
</filter>
<filter id="filter2_d_1_1448" x="68.5" y="295.406" width="110" height="21" filterUnits="userSpaceOnUse" color-interpolation-filters="sRGB">
<feFlood flood-opacity="0" result="BackgroundImageFix"/>
<feColorMatrix in="SourceAlpha" type="matrix" values="0 0 0 0 0 0 0 0 0 0 0 0 0 0 0 0 0 0 127 0" result="hardAlpha"/>
<feOffset dy="2"/>
<feComposite in2="hardAlpha" operator="out"/>
<feColorMatrix type="matrix" values="0 0 0 0 0 0 0 0 0 0 0 0 0 0 0 0 0 0 0.06 0"/>
<feBlend mode="normal" in2="BackgroundImageFix" result="effect1_dropShadow_1_1448"/>
<feBlend mode="normal" in="SourceGraphic" in2="effect1_dropShadow_1_1448" result="shape"/>
</filter>
<clipPath id="clip0_1_1448">
<rect x="24.5" y="72.6436" width="200" height="113" fill="white"/>
</clipPath>
</defs>
</svg>
