<svg width="1511" height="982" viewBox="0 0 1511 982" fill="none" xmlns="http://www.w3.org/2000/svg">
<line y1="99.7" x2="1511" y2="99.7" stroke="#AFAFAF" stroke-width="0.6" stroke-dasharray="10 20"/>
<line y1="199.7" x2="1511" y2="199.7" stroke="#AFAFAF" stroke-width="0.6" stroke-dasharray="10 20"/>
<line y1="299.7" x2="1511" y2="299.7" stroke="#AFAFAF" stroke-width="0.6" stroke-dasharray="10 20"/>
<line y1="399.7" x2="1511" y2="399.7" stroke="#AFAFAF" stroke-width="0.6" stroke-dasharray="10 20"/>
<line y1="499.7" x2="1511" y2="499.7" stroke="#AFAFAF" stroke-width="0.6" stroke-dasharray="10 20"/>
<line y1="599.7" x2="1511" y2="599.7" stroke="#AFAFAF" stroke-width="0.6" stroke-dasharray="10 20"/>
<line y1="699.7" x2="1511" y2="699.7" stroke="#AFAFAF" stroke-width="0.6" stroke-dasharray="10 20"/>
<line y1="799.7" x2="1511" y2="799.7" stroke="#AFAFAF" stroke-width="0.6" stroke-dasharray="10 20"/>
<line y1="899.7" x2="1511" y2="899.7" stroke="#AFAFAF" stroke-width="0.6" stroke-dasharray="10 20"/>
<line x1="98.7" y1="982" x2="98.7" y2="-1.31134e-08" stroke="#AFAFAF" stroke-width="0.6" stroke-dasharray="10 20"/>
<line x1="199.7" y1="985" x2="199.7" y2="3" stroke="#AFAFAF" stroke-width="0.6" stroke-dasharray="10 20"/>
<line x1="299.7" y1="982" x2="299.7" y2="-1.31134e-08" stroke="#AFAFAF" stroke-width="0.6" stroke-dasharray="10 20"/>
<line x1="399.7" y1="982" x2="399.7" y2="-1.31134e-08" stroke="#AFAFAF" stroke-width="0.6" stroke-dasharray="10 20"/>
<line x1="499.7" y1="982" x2="499.7" y2="-1.31134e-08" stroke="#AFAFAF" stroke-width="0.6" stroke-dasharray="10 20"/>
<line x1="599.7" y1="982" x2="599.7" y2="-1.31134e-08" stroke="#AFAFAF" stroke-width="0.6" stroke-dasharray="10 20"/>
<line x1="699.7" y1="982" x2="699.7" y2="-1.31134e-08" stroke="#AFAFAF" stroke-width="0.6" stroke-dasharray="10 20"/>
<line x1="799.7" y1="982" x2="799.7" y2="-1.31134e-08" stroke="#AFAFAF" stroke-width="0.6" stroke-dasharray="10 20"/>
<line x1="899.7" y1="982" x2="899.7" y2="-1.31134e-08" stroke="#AFAFAF" stroke-width="0.6" stroke-dasharray="10 20"/>
<line x1="998.7" y1="982" x2="998.7" y2="-1.31134e-08" stroke="#AFAFAF" stroke-width="0.6" stroke-dasharray="10 20"/>
<line x1="1098.95" y1="982" x2="1098.95" y2="-1.31134e-08" stroke="#AFAFAF" stroke-width="0.6" stroke-dasharray="10 20"/>
<line x1="1199.31" y1="982" x2="1199.31" y2="-1.31134e-08" stroke="#AFAFAF" stroke-width="0.6" stroke-dasharray="10 20"/>
<line x1="1299.67" y1="982" x2="1299.67" y2="-1.31134e-08" stroke="#AFAFAF" stroke-width="0.6" stroke-dasharray="10 20"/>
<line x1="1399.03" y1="982" x2="1399.03" y2="-1.31134e-08" stroke="#AFAFAF" stroke-width="0.6" stroke-dasharray="10 20"/>
<line x1="1499.39" y1="982" x2="1499.39" y2="-1.31134e-08" stroke="#AFAFAF" stroke-width="0.6" stroke-dasharray="10 20"/>
</svg>
