<svg width="135" height="56" viewBox="0 0 135 56" fill="none" xmlns="http://www.w3.org/2000/svg">
<path fill-rule="evenodd" clip-rule="evenodd" d="M133.594 31.9872H115.539C115.965 36.3104 119.123 37.6992 122.707 37.6992C126.381 37.6992 129.338 36.8704 131.779 35.5712V43.008C128.681 44.7908 125.135 45.6461 121.565 45.472C112.582 45.472 106.266 39.872 106.266 28.7168C106.266 19.3312 111.619 11.872 120.378 11.872C129.158 11.872 133.728 19.2192 133.728 28.672C133.728 29.568 133.638 31.4944 133.594 31.9872ZM120.333 19.3984C118.026 19.3984 115.472 21.0336 115.472 25.1776H124.992C124.992 21.0336 122.595 19.3984 120.333 19.3984ZM91.728 45.472C88.5024 45.472 86.5312 44.128 85.232 43.1424L85.1872 53.5136L75.9584 55.4624V12.4768H84.3808L84.56 14.7616C86.5135 12.9086 89.1027 11.8746 91.7952 11.872C98.2912 11.872 104.384 17.696 104.384 28.448C104.384 40.1632 98.336 45.472 91.728 45.472ZM89.6 20.048C87.472 20.048 86.1504 20.8096 85.1872 21.8624L85.232 35.5712C86.128 36.5568 87.4272 37.3184 89.6 37.3184C93.0048 37.3184 95.2896 33.6224 95.2896 28.6496C95.2896 23.8336 92.96 20.048 89.6 20.048ZM63.2576 12.4768H72.5088V44.8224H63.2576V12.4768ZM63.2576 1.9488L72.5088 0V7.5264L63.2576 9.4976V1.9712V1.9488ZM53.5808 22.8928V44.8224H44.352V12.4768H52.64L52.9088 15.2096C55.1488 11.2448 59.7856 12.0512 61.0176 12.4768V20.9664C59.8528 20.5856 55.888 20.0032 53.5808 22.8928ZM34.4288 33.4656C34.4288 38.9088 40.2528 37.2288 41.4176 36.736V44.2624C40.1856 44.9344 37.968 45.472 34.944 45.472C33.6836 45.5088 32.429 45.2887 31.2563 44.8253C30.0837 44.3619 29.0176 43.6648 28.1229 42.7763C27.2282 41.8879 26.5235 40.8267 26.0518 39.6574C25.5802 38.4881 25.3513 37.235 25.3792 35.9744L25.4016 6.4736L34.4064 4.5472V12.4768H41.44V20.384H34.4288V33.488V33.4656ZM23.4304 35.0336C23.4304 41.6864 18.256 45.472 10.5952 45.472C7.15751 45.4694 3.75704 44.7603 0.6048 43.3888V34.5856C3.696 36.2656 7.5488 37.52 10.5952 37.52C12.656 37.52 14.0224 36.9824 14.0224 35.28C14.0224 30.8448 0 32.5024 0 22.288C0 15.7696 5.1072 11.872 12.5888 11.872C15.6352 11.872 18.6816 12.32 21.7504 13.552V22.2432C18.9145 20.7507 15.7704 19.9378 12.5664 19.8688C10.64 19.8688 9.3408 20.4288 9.3408 21.8848C9.3408 26.0288 23.4304 24.0576 23.4304 35.056V35.0336Z" fill="#635BFF"/>
</svg>
